<svg xmlns="http://www.w3.org/2000/svg" viewBox="0 0 140 120">
  <defs>
    <linearGradient id="gb" x1="0" y1="0" x2="1" y2="1">
      <stop offset="0" stop-color="#a0e9ff"/><stop offset="1" stop-color="#fbc2eb"/>
    </linearGradient>
  </defs>
  <ellipse cx="70" cy="95" rx="38" ry="10" fill="#0001"/>
  <g transform="translate(20 10)">
    <circle cx="50" cy="40" r="26" fill="url(#gb)"/>
    <circle cx="38" cy="40" r="8" fill="#fff"/>
    <circle cx="62" cy="40" r="8" fill="#fff"/>
    <circle cx="38" cy="40" r="3" fill="#333"/>
    <circle cx="62" cy="40" r="3" fill="#333"/>
    <rect x="44" y="48" width="12" height="6" rx="3" fill="#ff7a18"/>
    <path d="M8,36 q-10,10 0,20 q14,-6 20,-16 q-12,-2 -20,-4z" fill="#a0e9ff"/>
    <path d="M92,36 q10,10 0,20 q-14,-6 -20,-16 q12,-2 20,-4z" fill="#a0e9ff"/>
    <circle cx="50" cy="16" r="6" fill="#ffcc00"/>
  </g>
</svg>